<svg xmlns="http://www.w3.org/2000/svg" xml:space="preserve" width="2000" height="535" data-id="lg_hWPDoeXIdwBy6TPIkf" data-version="1" viewBox="0 0 2000 535"><g data-padding="20"><g transform="translate(10 9.605)scale(.9641)"><path fill="none" stroke="#42159e" stroke-width="1.59" d="M1026.872-.097a240.73 240.73 0 1 0 0 481.46 240.73 240.73 0 1 0 0-481.46Z"/><rect width="350.192" height="131.082" x="294.76" y="-66.539" fill="#fff" rx="0" ry="0" transform="translate(280 425.89)scale(1.59)"/><rect width="440.774" height="133.34" x="402.173" y="-67.992" fill="none" rx="0" ry="0" transform="matrix(1.2 0 0 1.2 279.04 456.68)"/><path fill="#42159e" d="M818.602 449.143q11.04.85 17.76 7.42 6.72 6.58 6.72 16.34 0 7.5-3.61 13.59-3.61 6.08-9.97 9.55-6.37 3.46-14.29 3.46-4.53 0-9.9-.42-1.98-.14-4.67-.29-2.69-.14-6.09-.14l-9.47.14q-2.55.15-7.08.15-.28 0-.28-.85t.28-.85q5.24 0 7.71-.71 2.48-.71 3.4-2.76t.92-6.29v-65.51q0-4.24-.85-6.22t-3.26-2.76q-2.4-.78-7.78-.78-.28 0-.28-.85t.28-.85l6.94.15q5.94.28 9.47.28 2.55 0 4.74-.14 2.2-.14 3.75-.29 4.39-.42 8.21-.42 11.6 0 17.4 5.16 5.8 5.17 5.8 13.51 0 6.8-4.24 12.1-4.25 5.31-11.61 8.28m-10.46-37.07q-3.68 0-5.45.64-1.77.63-2.62 2.76-.85 2.12-.85 6.79v26.88l6.37.14q10.04 0 14.78-5.31 4.74-5.3 4.74-14.07 0-8.07-4.1-12.95t-12.87-4.88m4.95 85.03q10.18 0 15.13-5.38 4.96-5.38 4.96-15.28 0-10.89-6.16-17.47-6.15-6.58-17.19-6.72-4.52-.14-10.61.28v34.95q0 3.67 1.06 5.73 1.06 2.05 4.04 2.97 2.97.92 8.77.92m66.35 3.82q-7.36 0-12.81-3.61-5.44-3.61-8.41-9.83-2.97-6.23-2.97-14.01 0-8.77 3.53-15.84 3.54-7.08 9.84-11.11 6.29-4.03 14.35-4.03 10.76 0 17.48 7.14 6.72 7.15 6.72 19.74 0 9.62-3.82 16.83-3.82 7.22-10.19 10.97t-13.72 3.75m4.24-3.54q6.93 0 11.46-5.8t4.53-15.7q0-7.64-2.62-14.58-2.62-6.93-7.36-11.17-4.73-4.25-10.68-4.25-6.93 0-11.6 5.66t-4.67 15.56q0 7.5 2.69 14.51 2.69 7 7.5 11.38 4.81 4.39 10.75 4.39m56.17 3.54q-7.36 0-12.81-3.61-5.44-3.61-8.41-9.83-2.97-6.23-2.97-14.01 0-8.77 3.53-15.84 3.54-7.08 9.83-11.11 6.3-4.03 14.36-4.03 10.76 0 17.48 7.14 6.72 7.15 6.72 19.74 0 9.62-3.82 16.83-3.82 7.22-10.19 10.97t-13.72 3.75m4.24-3.54q6.93 0 11.46-5.8t4.53-15.7q0-7.64-2.62-14.58-2.62-6.93-7.36-11.17-4.74-4.25-10.68-4.25-6.93 0-11.6 5.66t-4.67 15.56q0 7.5 2.69 14.51 2.69 7 7.5 11.38 4.81 4.39 10.75 4.39m93.09-9.05q.14-.15.43-.15.56 0 .91.5.36.49.08.78-4.25 5.51-7.71 8.13-3.47 2.62-7.01 2.62-3.25 0-6.29-2.05-3.05-2.05-7.57-7.43l-11.89-14.29q-1.69-2.12-2.97-2.97-1.27-.85-2.97-.85l-1.27.14-.43 25.19q0 2.12-4.52 2.12-2.12 0-2.83-.21-.71-.22-.85-.64l.14-3.4.14-7.35.99-77.11q0-6.65-4.67-6.65-2.54 0-7.21 2.13h-.28q-.57 0-.78-.64t.21-.92l18.53-8.91h.29q.42 0 .99.42.56.43.56.71l-.28 57.72q4.67-5.94 11.1-9.34 6.44-3.39 13.09-3.39 6.23 0 8.49 2.69 2.26 2.68 2.26 5.8 0 5.09-6.15 9.97-6.16 4.88-17.19 8.56l13.72 16.41q3.96 4.81 6.51 6.51t4.67 1.7q4.38 0 9.76-5.8m-28.01-41.6q-7.36 0-12.52 6.37-5.17 6.36-5.73 16.55v1.13q13.3-3.11 18.89-6.79 5.58-3.68 5.58-10.18 0-3.54-1.41-5.31-1.42-1.77-4.81-1.77m45.98 53.48q-3.96 0-6.09-2.83-2.12-2.83-1.98-8.35l.85-77.67q0-3.39-.99-5.02t-3.39-1.63q-2.41 0-7.08 2.13l-.28.14q-.42 0-.71-.71-.28-.71.29-.99l18.25-8.91h.28q.56 0 1.06.42.5.43.5.71l-.71 88.84q0 4.25.99 6.23t3.11 1.98q3.54 0 8.91-6.51.14-.14.43-.14.56 0 1.06.5.49.49.21.77-4.38 5.66-7.71 8.35-3.32 2.69-7 2.69m81.77-12.17q.14-.14.42-.14.43 0 .85.5.43.49.29.77-4.11 5.66-7.57 8.35-3.47 2.69-7.01 2.69-7.92 0-7.92-11.18l.28-17.54q-4.66 13.16-12.23 21.22t-16.06 8.06q-5.38 0-8.7-3.74-3.33-3.75-3.33-11.96 0-9.76 4.74-19.73 4.74-9.98 12.38-16.42 7.64-6.43 15.56-6.43 2.98 0 5.88.99t5.16 2.97q2.26-2.26 2.69-4.95.14-.29 1.06-.29t.78.29l-.29 44.84q-.14 8.21 3.97 8.21 3.53 0 9.05-6.51m-44.42 5.8q5.8 0 11.17-5.59 5.38-5.58 8.7-13.79 3.33-8.2 3.33-15.42 0-5.23-3.04-8.42-3.05-3.18-8-3.18-5.66 0-10.47 4.1t-7.64 11.32q-2.82 7.22-2.82 16.13 0 7.64 2.19 11.25 2.19 3.6 6.58 3.6m115.3-5.8.28-.14q.57 0 1.06.5.5.49.21.77-4.38 5.66-7.71 8.35-3.32 2.69-7 2.69-8.06 0-7.78-11.18l.14-25.18q0-15.84-8.35-15.84-5.37 0-9.83 5.8-4.45 5.8-7.14 17.11-2.69 11.32-2.83 27.03 0 .99-1.2 1.55-1.21.57-3.47.57-2.12 0-2.83-.21-.71-.22-.99-.64 0-.57.21-3.89.21-3.33.21-6.86l.29-31.55q0-4.25-1.14-6.3-1.13-2.05-3.11-2.05-3.11 0-9.48 6.79-.28.28-.42.28-.57 0-.99-.49-.43-.5-.14-.92 4.24-5.66 7.92-8.42t7.64-2.76 5.73 2.69 1.77 8.21v20.09q2.69-14.86 8.84-23.21 6.15-8.34 14.93-8.34 6.22 0 9.33 4.45 3.11 4.46 2.97 14.22l-.14 25.18q0 4.25.92 6.23t3.04 1.98q3.26 0 9.06-6.51m67.62 0q.14-.14.43-.14.42 0 .92.5.49.49.35.77-4.53 5.8-7.85 8.42-3.33 2.62-7.01 2.62-3.96 0-6.01-2.9t-1.91-8.28l.29-16.13q-4.39 12.88-10.97 20.38-6.58 7.49-14.78 7.49-6.65 0-11.39-4.95t-4.74-14.99q0-10.05 4.81-18.89t12.66-14.15q7.85-5.3 16.34-5.3 4.81 0 8.49 1.84l.42-32.97q.29-6.65-4.52-6.65-2.69 0-7.22 2.13-.14.14-.42.14-.57 0-.78-.71t.35-.99l18.54-8.91h.28q.42 0 .99.42.56.43.56.71l-.84 88.84q0 4.25.92 6.23t3.04 1.98q3.25 0 9.05-6.51m-42.86 5.8q6.5 0 11.53-5.87 5.02-5.87 7.85-14 2.83-8.14 2.83-14.36 0-5.95-3.26-9.06-3.25-3.11-9.33-3.11-6.23 0-11.18 3.32-4.95 3.33-7.78 9.62-2.83 6.3-2.83 14.93.14 9.34 3.39 13.93 3.26 4.6 8.78 4.6m-99.273-356.875v-14.623l-100.512 62.862Zm-100.487 53.662v171.701l121.535-57.234V133.396ZM918.36 136.968v-14.623l100.512 62.862Zm100.512 53.662v171.701l-121.535-57.234V133.396Z"/></g><path fill="transparent" stroke="transparent" d="M721.693 0h557v535h-557z"/></g></svg>